<svg width="1256" height="190" viewBox="0 0 1256 190" fill="none" xmlns="http://www.w3.org/2000/svg">
<g opacity="0.08">
<mask id="mask0_4_124" style="mask-type:alpha" maskUnits="userSpaceOnUse" x="0" y="0" width="1256" height="188">
<path d="M0 0V90L241 89.5L339.5 188H628V0H0Z" fill="url(#paint0_linear_4_124)"/>
<path d="M1256 0V90L1015 89.5L916.5 188H628V0H1256Z" fill="url(#paint1_linear_4_124)"/>
</mask>
<g mask="url(#mask0_4_124)">
<path d="M0 0V90L241 89.5L339.5 188H628V0H0Z" fill="url(#paint2_linear_4_124)"/>
<path d="M1256 0V90L1015 89.5L916.5 188H628V0H1256Z" fill="url(#paint3_linear_4_124)"/>
</g>
</g>
<path d="M1015 89.5H1256V91H1016.5L918 189.5H628V188H916.5L1015 89.5Z" fill="url(#paint4_linear_4_124)" fill-opacity="0.1"/>
<path d="M241 89.5H0V91H239.5L338 189.5H628V188H339.5L241 89.5Z" fill="url(#paint5_linear_4_124)" fill-opacity="0.1"/>
<defs>
<linearGradient id="paint0_linear_4_124" x1="1256" y1="0" x2="0" y2="-3.27118e-05" gradientUnits="userSpaceOnUse">
<stop stop-color="#C4C4C4" stop-opacity="0"/>
<stop offset="0.499995" stop-color="#C4C4C4"/>
<stop offset="1" stop-color="#C4C4C4" stop-opacity="0"/>
</linearGradient>
<linearGradient id="paint1_linear_4_124" x1="1256" y1="0" x2="0" y2="-3.27118e-05" gradientUnits="userSpaceOnUse">
<stop stop-color="#C4C4C4" stop-opacity="0"/>
<stop offset="0.499995" stop-color="#C4C4C4"/>
<stop offset="1" stop-color="#C4C4C4" stop-opacity="0"/>
</linearGradient>
<linearGradient id="paint2_linear_4_124" x1="628" y1="0" x2="628" y2="188" gradientUnits="userSpaceOnUse">
<stop stop-color="#C4C4C4" stop-opacity="0"/>
<stop offset="1" stop-color="#C4C4C4"/>
</linearGradient>
<linearGradient id="paint3_linear_4_124" x1="628" y1="0" x2="628" y2="188" gradientUnits="userSpaceOnUse">
<stop stop-color="#C4C4C4" stop-opacity="0"/>
<stop offset="1" stop-color="#C4C4C4"/>
</linearGradient>
<linearGradient id="paint4_linear_4_124" x1="1.14369e-06" y1="189" x2="1460" y2="189" gradientUnits="userSpaceOnUse">
<stop stop-color="white" stop-opacity="0"/>
<stop offset="0.430137" stop-color="white"/>
<stop offset="1" stop-color="white" stop-opacity="0"/>
</linearGradient>
<linearGradient id="paint5_linear_4_124" x1="1.14369e-06" y1="189" x2="1460" y2="189" gradientUnits="userSpaceOnUse">
<stop stop-color="white" stop-opacity="0"/>
<stop offset="0.430137" stop-color="white"/>
<stop offset="1" stop-color="white" stop-opacity="0"/>
</linearGradient>
</defs>
</svg>
